<?xml version="1.0" encoding="utf-8"?>
<!-- Generator: Adobe Illustrator 24.1.1, SVG Export Plug-In . SVG Version: 6.00 Build 0)  -->
<svg version="1.1" id="Layer_1" xmlns="http://www.w3.org/2000/svg" xmlns:xlink="http://www.w3.org/1999/xlink" x="0px" y="0px"
	 viewBox="0 0 342.8 191" style="enable-background:new 0 0 342.8 191;" xml:space="preserve">
<style type="text/css">
	.st0{fill:none;stroke:#000000;stroke-width:3;stroke-miterlimit:10;}
	.st1{fill:#231F20;}
</style>
<ellipse class="st0" cx="172.2" cy="180.6" rx="166.8" ry="176.3"/>
<path class="st1" d="M67.2,178.2c-0.1-0.1-0.3-0.2-0.4-0.2l0,0c-0.2,0-0.3,0.1-0.4,0.2c-0.1,0.1-0.2,0.3-0.2,0.4l0.1,4.1
	c0,0.2-0.1,0.5-0.2,0.7c-0.2,0.2-0.4,0.2-0.7,0.2L32,184.3L67,157.4l0,0v-1.7l-39.2,0.8l0,0c-0.2,0-0.5-0.1-0.6-0.2
	c-0.2-0.2-0.2-0.4-0.2-0.7l-0.2-3c0-0.2-0.1-0.3-0.2-0.4c-0.1-0.1-0.3-0.2-0.4-0.2l0,0c-0.2,0-0.3,0.1-0.4,0.2
	c-0.1,0.1-0.2,0.3-0.2,0.4l0.2,10.7c0,0.2,0.1,0.3,0.2,0.4c0.1,0.1,0.3,0.2,0.4,0.2l0,0c0.3,0,0.5-0.2,0.6-0.4c0-0.1,0-0.1,0-0.2
	l-0.1-4.1c-0.1-0.4,0.2-0.8,0.6-0.9c0.1,0,0.2,0,0.2,0l31.7-0.6l-33.3,25l0,0l0.2,7.5c0,0.2,0.1,0.3,0.2,0.4
	c0.1,0.1,0.3,0.2,0.4,0.2l0,0c0.2,0,0.3,0,0.4-0.2c0.1-0.1,0.2-0.3,0.1-0.5l-0.1-3.1c-0.1-0.4,0.2-0.8,0.6-0.9c0.1,0,0.2,0,0.2,0
	l37.2-0.8l0,0c0.4-0.1,0.8,0.2,0.9,0.7c0,0.1,0,0.1,0,0.2l0.1,3.1c0,0.3,0.2,0.6,0.5,0.6c0,0,0.1,0,0.1,0l0,0c0.2,0,0.3-0.1,0.4-0.2
	c0.1-0.1,0.2-0.3,0.2-0.4l-0.2-10.7C67.4,178.4,67.3,178.3,67.2,178.2z"/>
<path class="st1" d="M71.8,111.3c-2.6-2.8-5.9-4.9-9.5-6.3c-3.5-1.5-7.4-2.1-11.2-2c-3.4,0.2-6.7,1.2-9.5,3.1
	c-5.5,3.9-8.3,10.7-7,17.4c0.7,3.3,2.3,6.4,4.7,8.8c2.6,2.8,5.9,4.9,9.4,6.3c3.1,1.3,6.4,2,9.8,2c0.5,0,0.9,0,1.4,0
	c3.4-0.2,6.7-1.3,9.5-3.2c5.5-3.9,8.3-10.7,7-17.4C75.7,116.8,74.1,113.7,71.8,111.3z M74.4,129.4c-0.9,2.4-2.7,4.4-5,5.5
	c-2.6,1.3-5.5,1.8-8.5,1.6c-3.5-0.2-7-1-10.3-2.4c-3.3-1.3-6.4-3.1-9.1-5.4c-2.2-1.9-3.9-4.3-5-7c-1.8-5,0.5-10.5,5.2-12.9
	c2.3-1.1,4.9-1.7,7.5-1.6h1c3.5,0.2,7,1,10.3,2.4c3.3,1.3,6.4,3.1,9.1,5.4c2.2,1.9,4,4.3,5,7C75.4,124.3,75.4,127,74.4,129.4z"/>
<path class="st1" d="M80.4,55.2l2.2-2.2c0.1-0.1,0.2-0.3,0.2-0.4c0-0.3-0.3-0.6-0.6-0.6c-0.1,0-0.2,0.1-0.3,0.1l-7.5,7.6
	c-0.1,0.1-0.2,0.3-0.2,0.4c0,0.2,0.1,0.3,0.2,0.4c0.2,0.2,0.5,0.3,0.7,0.1c0,0,0.1-0.1,0.1-0.1l2.9-2.9c0.3-0.3,0.7-0.4,1.1-0.2
	c0.1,0,0.1,0.1,0.2,0.2l22.4,22.4l-41.1-6.7l0,0l-5.3,5.3C55.1,78.9,55,79,55,79.2c0,0.2,0.1,0.3,0.2,0.4c0.2,0.2,0.5,0.3,0.8,0.1
	c0,0,0.1-0.1,0.1-0.1l2.2-2.2c0.3-0.3,0.7-0.4,1.1-0.2c0.1,0,0.1,0.1,0.2,0.2l26.3,26.3c0.3,0.3,0.4,0.8,0.2,1.1
	c0,0.1-0.1,0.1-0.2,0.2l0,0l-2.2,2.2c-0.1,0.1-0.2,0.3-0.2,0.4c0,0.2,0.1,0.3,0.2,0.4c0.1,0.1,0.3,0.2,0.4,0.2
	c0.2,0,0.3-0.1,0.4-0.2l7.5-7.5c0.2-0.2,0.2-0.6,0-0.8c0,0,0,0,0,0c-0.1-0.1-0.3-0.2-0.4-0.2c-0.2,0-0.3,0.1-0.4,0.2l-2.9,2.9
	c-0.3,0.3-0.8,0.4-1.1,0.2c-0.1,0-0.1-0.1-0.2-0.2L63.3,78.9l43.6,6.5l0,0l1.1-1.1l0,0L80.4,56.5c-0.3-0.3-0.4-0.8-0.2-1.1
	C80.3,55.3,80.3,55.3,80.4,55.2z"/>
<path class="st1" d="M136.3,34.8l-4.5-7.3v0l-27.7,11.2c-0.1,0.1-0.2,0.2-0.3,0.3c-0.1,0.1-0.1,0.3,0,0.5c0,0.2,0.2,0.3,0.3,0.4
	c0.2,0.1,0.3,0.1,0.5,0l2.8-1.2c0.4-0.2,0.8-0.1,1.1,0.3c0,0.1,0.1,0.1,0.1,0.2l14,34.4c0.2,0.4,0.1,0.8-0.3,1.1
	c-0.1,0-0.1,0.1-0.2,0.1l-2.8,1.2c-0.2,0.1-0.3,0.2-0.4,0.3c-0.1,0.1-0.1,0.3,0,0.5c0.1,0.1,0.2,0.3,0.3,0.3c0.1,0,0.2,0,0.2,0
	c0.1,0,0.1,0,0.2,0l12.8-5.2c0.1-0.1,0.3-0.2,0.3-0.3c0.1-0.1,0.1-0.3,0-0.5c-0.1-0.1-0.2-0.3-0.3-0.3c-0.1-0.1-0.3-0.1-0.5,0
	l-4.3,1.8c-0.2,0.1-0.5,0.1-0.7,0c-0.2-0.1-0.4-0.3-0.5-0.5l-7.9-19.4l7.4-3c1-0.4,2-0.6,3-0.6c0.9,0.1,1.8,0.6,2.5,1.3
	c1,1.1,1.8,2.4,2.4,3.8c0.1,0.1,0.2,0.2,0.3,0.3c0.1,0.1,0.3,0.1,0.4,0c0.1-0.1,0.2-0.2,0.2-0.3c0.1-0.1,0.1-0.3,0-0.4l-5.6-13.8
	c-0.1-0.1-0.2-0.3-0.3-0.3c-0.1-0.1-0.3-0.1-0.4,0c-0.1,0.1-0.2,0.1-0.3,0.3c0,0.1,0,0.3,0,0.4c0.4,1.4,0.7,2.8,0.7,4.2
	c0,0.9-0.3,1.8-0.9,2.5c-0.7,0.7-1.6,1.3-2.5,1.6l-7.4,3l-6-14.7l11.3-4.6c1.3-0.6,2.7-0.9,4.1-0.9h0.1c1.3,0,2.5,0.4,3.6,1.1
	c1.5,1,2.8,2.1,4,3.4c0.2,0.2,0.5,0.3,0.8,0.2c0.2-0.1,0.3-0.2,0.3-0.3c0-0.2,0-0.4-0.1-0.5L136.3,34.8z"/>
<path class="st1" d="M166.7,62.9l-3,0.3c-0.2,0-0.5,0-0.7-0.2c-0.2-0.2-0.3-0.4-0.3-0.6l-3.8-37c-0.1-0.4,0.1-0.8,0.5-1
	c0.1,0,0.2,0,0.2,0l3-0.3c0.2,0,0.3-0.1,0.4-0.2c0.1-0.1,0.1-0.3,0.1-0.4c0-0.2-0.1-0.3-0.2-0.4c-0.1-0.1-0.3-0.1-0.4-0.1l-12.2,1.2
	c-0.2,0-0.3,0.1-0.4,0.2c-0.1,0.1-0.2,0.3-0.1,0.4c0,0.2,0.1,0.3,0.2,0.4c0.1,0.1,0.3,0.1,0.5,0.1l3-0.3c0.2,0,0.5,0,0.7,0.1
	c0.2,0.2,0.3,0.4,0.3,0.6l3.8,37c0,0.2,0,0.5-0.1,0.7c-0.2,0.2-0.4,0.3-0.6,0.3l-3,0.3c-0.3,0-0.5,0.2-0.5,0.5c0,0.1,0,0.1,0,0.2
	c0,0.2,0.1,0.3,0.2,0.4c0.1,0.1,0.2,0.1,0.4,0.1h0.1l12.2-1.3c0.2,0,0.3-0.1,0.4-0.2c0.1-0.1,0.2-0.3,0.1-0.4c0-0.2-0.1-0.3-0.2-0.4
	C167,62.9,166.8,62.9,166.7,62.9z"/>
<path class="st1" d="M214.8,28.5c-0.2,0-0.4,0.1-0.4,0.2l-1.4,2.8c-1.4-1.6-3.1-3-4.9-4.1c-2-1.1-4.2-1.9-6.5-2.3
	c-3.2-0.6-6.5-0.3-9.4,1c-3.1,1.4-5.7,3.6-7.6,6.3c-2.2,3.1-3.7,6.7-4.4,10.5c-0.8,3.7-0.7,7.6,0.2,11.4c0.8,3.3,2.5,6.3,4.9,8.7
	c2.4,2.3,5.4,3.8,8.7,4.4c1.2,0.2,2.4,0.3,3.6,0.4c1.6,0,3.2-0.2,4.8-0.7c2.7-0.9,5.1-2.5,7-4.6c0.2-0.3,0.2-0.6,0-0.8
	c-0.1-0.1-0.3-0.2-0.5-0.2c-0.2,0-0.4,0.1-0.5,0.3c-1.7,2-4,3.5-6.4,4.3c-2.3,0.7-4.7,0.9-7.1,0.4c-2.6-0.5-4.9-1.9-6.5-3.9
	c-1.8-2.4-3-5.1-3.4-8.1c-0.6-3.5-0.5-7.1,0.3-10.6c0.6-3.5,1.9-6.8,3.7-9.9c1.5-2.6,3.6-4.7,6.1-6.2c2.1-1.3,4.7-1.7,7.1-1.3
	c3.1,0.5,5.9,2.2,7.6,4.8c1.6,2.6,2.5,6.1,2.6,10.5c0,0.2,0.1,0.4,0.2,0.5c0.1,0.1,0.2,0.2,0.4,0.3c0.2,0,0.3,0,0.4-0.1
	c0.1-0.1,0.2-0.3,0.2-0.5l1.8-12.9c0-0.1,0-0.2-0.1-0.3C215,28.6,214.9,28.6,214.8,28.5z"/>
<path class="st1" d="M233.7,83.1l-3-2c-0.4-0.2-0.6-0.6-0.4-1c0-0.1,0.1-0.1,0.1-0.2l20.4-32.1l5.9,3.8c1.1,0.6,2,1.5,2.8,2.5
	c0.5,0.8,0.7,1.8,0.6,2.7c-0.2,1.6-0.5,3.2-1,4.8c-0.1,0.3,0.1,0.7,0.4,0.9c0.1,0.1,0.2,0.1,0.3,0.1c0.2-0.1,0.3-0.2,0.4-0.4
	c0.1-0.1,0.2-0.3,0.2-0.4l3-7.2l0,0l-27.5-17.6l-5.3,5.8c-0.1,0.1-0.2,0.2-0.3,0.4c-0.1,0.1-0.2,0.3-0.2,0.5c0,0.1,0.1,0.2,0.2,0.2
	c0.3,0.2,0.7,0.2,1,0c1.2-1.1,2.5-2,3.9-2.9c0.8-0.5,1.7-0.7,2.7-0.6c1.2,0.2,2.4,0.7,3.4,1.5l5.9,3.7l-20.5,32.1
	c-0.2,0.4-0.6,0.6-1,0.4c-0.1,0-0.1-0.1-0.2-0.1l-3-2c-0.1-0.1-0.3-0.1-0.5-0.1c-0.2,0-0.3,0.1-0.4,0.3c-0.1,0.1-0.1,0.3-0.1,0.5
	c0,0.2,0.1,0.3,0.3,0.4L233,84c0.1,0.1,0.2,0.1,0.3,0.1h0.1c0.2,0,0.3-0.1,0.4-0.3c0.1-0.1,0.1-0.3,0.1-0.5
	C233.9,83.3,233.8,83.1,233.7,83.1z"/>
<path class="st1" d="M252.8,101.3c-0.2-0.2-0.3-0.4-0.3-0.6c0-0.2,0.2-0.5,0.4-0.6l28-24.5c0.3-0.3,0.8-0.4,1.1-0.1
	c0.1,0.1,0.1,0.1,0.2,0.2l2,2.3c0.1,0.1,0.3,0.2,0.4,0.2c0.2,0,0.3,0,0.4-0.1c0.1-0.1,0.2-0.2,0.2-0.4c0-0.2,0-0.3-0.1-0.4l-8.1-9.2
	c-0.1-0.1-0.2-0.2-0.4-0.2c-0.3,0-0.6,0.2-0.7,0.5c0,0.2,0,0.4,0.2,0.5l2,2.3c0.2,0.2,0.3,0.4,0.3,0.6c0,0.2-0.2,0.5-0.4,0.6
	l-28,24.5c-0.3,0.3-0.7,0.4-1.1,0.1c-0.1-0.1-0.1-0.1-0.2-0.2l-2-2.3c-0.1-0.1-0.2-0.2-0.4-0.2l0,0c-0.3,0-0.6,0.3-0.6,0.6
	c0,0.2,0,0.3,0.1,0.4l8.1,9.2c0.1,0.1,0.2,0.2,0.4,0.2h0c0.1,0,0.3-0.1,0.4-0.1c0.1-0.1,0.2-0.3,0.2-0.4c0-0.2,0-0.3-0.1-0.4
	L252.8,101.3z"/>
<path class="st1" d="M283.3,138.7c3.5-0.1,7-0.8,10.2-2.2c3.6-1.4,6.7-3.6,9.3-6.4c2.3-2.5,3.9-5.6,4.5-8.9
	c1.2-6.7-1.7-13.4-7.3-17.3c-2.9-1.9-6.2-2.9-9.6-3c-7.7-0.1-15.2,3-20.5,8.7c-2.3,2.5-3.8,5.6-4.5,8.9c-1.2,6.7,1.7,13.5,7.4,17.3
	c2.8,1.8,6.1,2.8,9.5,2.9L283.3,138.7z M272.9,133.1c-4.8-2.3-7.1-7.8-5.4-12.8c1-2.7,2.7-5.2,4.9-7.1c5.4-4.7,12.1-7.5,19.3-8.1
	h1.3c2.5-0.1,5,0.5,7.2,1.5c4.8,2.3,7.1,7.8,5.4,12.8c-1,2.8-2.7,5.2-4.9,7.1c-5.4,4.7-12.1,7.5-19.3,8.1
	C278.4,134.8,275.5,134.3,272.9,133.1z"/>
<path class="st1" d="M317.1,152.3c-0.1-0.1-0.3-0.2-0.4-0.2l0,0c-0.3,0-0.6,0.2-0.6,0.5c0,0,0,0.1,0,0.1l-0.1,3.1
	c0,0.2-0.1,0.5-0.2,0.7c-0.2,0.2-0.4,0.2-0.6,0.2l0,0l-37.2-0.8c-0.2,0-0.5-0.1-0.7-0.2c-0.2-0.2-0.2-0.4-0.2-0.7l0.1-3.1
	c0-0.3-0.2-0.6-0.4-0.6c0,0-0.1,0-0.1,0l0,0c-0.2,0-0.3,0.1-0.4,0.2c-0.1,0.1-0.2,0.3-0.2,0.4l-0.2,10.7c0,0.2,0.1,0.3,0.2,0.4
	c0.1,0.1,0.3,0.2,0.4,0.2l0,0c0.2,0,0.3-0.1,0.4-0.2c0.1-0.1,0.2-0.3,0.2-0.4l0.1-4.1c-0.1-0.4,0.3-0.8,0.7-0.9c0.1,0,0.1,0,0.2,0
	l33.4,0.7l-36,25.5l0,0v1.6v0.1l39.2,0.8c0.4,0,0.8,0.3,0.9,0.7c0,0.1,0,0.1,0,0.2l-0.1,3.1c0,0.2,0.1,0.3,0.2,0.4
	c0.1,0.1,0.3,0.2,0.4,0.2l0,0c0.2,0,0.3-0.1,0.4-0.2c0.1-0.1,0.2-0.3,0.2-0.4l0.2-10.7c0-0.2-0.1-0.3-0.2-0.4
	c-0.1-0.1-0.3-0.2-0.4-0.2l0,0c-0.2,0-0.3,0-0.4,0.1c-0.1,0.1-0.2,0.3-0.2,0.4l-0.1,4.1c0,0.2-0.1,0.5-0.2,0.7
	c-0.2,0.2-0.4,0.2-0.7,0.2l-31.7-0.7l34.3-23.6l0,0l0.2-7.5C317.3,152.5,317.2,152.3,317.1,152.3z"/>
<path class="st1" d="M441.5,222.8c-0.7-6.4-1.1-12.8-1.1-19.3c0-93.7,76.2-170,170-170s170,76.2,170,170c0,6.4-0.4,12.9-1.1,19.3
	h1.5c0.7-6.4,1.1-12.8,1.1-19.3C781.7,109,704.8,32.1,610.3,32.1S438.9,109,438.9,203.5c0,6.4,0.4,12.9,1.1,19.3H441.5z"/>
</svg>
